<svg width="173" height="26" viewBox="0 0 173 26" fill="none" xmlns="http://www.w3.org/2000/svg">
<path d="M0.324615 22.1326L12.0468 2.64869C12.9517 1.14559 15.1826 1.14559 16.0864 2.64869L27.8085 22.1326C28.7227 23.6527 27.5974 25.5671 25.7887 25.5671H2.34443C0.535762 25.5671 -0.589582 23.6538 0.324615 22.1326Z" fill="#FF312C"/>
<path d="M38.4007 0.00187453C33.0779 -0.0851475 28.4548 2.86569 26.2331 7.1908C25.6437 8.33791 25.6936 9.69862 26.3595 10.805L34.8565 24.9275C35.1651 25.4406 35.6964 25.7875 36.2997 25.8712C36.9111 25.9559 37.5364 26 38.1722 26C45.5229 26 51.486 20.2102 51.5173 13.0563C51.5498 5.9804 45.6644 0.119411 38.4007 0.00187453Z" fill="#FF312C"/>
<path d="M72.0241 0.433594H53.9107C52.7668 0.433594 52.1066 1.69372 52.7737 2.59897C54.9548 5.55998 56.2356 9.18553 56.2182 13.0789C56.2008 16.9181 54.9339 20.4769 52.7958 23.3916C52.1264 24.3025 52.7807 25.5683 53.9304 25.5683H72.0241C73.6564 25.5683 74.9801 24.2788 74.9801 22.6886V3.31323C74.9801 1.7231 73.6564 0.433594 72.0241 0.433594Z" fill="#FF312C"/>
<path d="M150.656 16.0772C148.846 16.0772 147.686 14.6758 147.686 12.9354C147.686 11.1949 148.799 9.77092 150.656 9.77092C152.512 9.77092 153.602 11.1949 153.602 12.9354C153.602 14.6758 152.465 16.0772 150.656 16.0772ZM151.421 6.56128C149.704 6.56128 148.358 7.26198 147.639 8.1661V6.90033H144.275V22.7225H147.802V17.7724C148.567 18.654 149.959 19.2868 151.352 19.2868C155.018 19.2868 157.176 16.6649 157.176 12.8902C157.176 9.34146 154.971 6.56128 151.421 6.56128ZM169.241 6.85512L165.97 15.0149H165.505L162.28 6.85512H158.197L163.116 17.9759L163.765 19.0156L163.51 19.3773H159.496V22.7225H161.816C164.763 22.7225 166.619 21.4341 167.872 18.5635L173 6.85512H169.241ZM139.472 14.8792C138.219 14.8792 137.198 15.8738 137.198 17.0943C137.198 18.3375 138.219 19.3321 139.472 19.3321C140.748 19.3321 141.769 18.3375 141.769 17.0943C141.769 15.8738 140.748 14.8792 139.472 14.8792ZM130.655 6.85512L127.244 11.7148H126.873L123.508 6.85512H119.332V19.0156H122.812V12.3251H123.299L126.176 16.4615H127.847L130.771 12.3251H131.211V19.0156H134.692V6.85512H130.655ZM110.445 15.9868C108.635 15.9868 107.521 14.6306 107.521 12.9354C107.521 11.2627 108.612 9.90654 110.445 9.90654C112.301 9.90654 113.392 11.2627 113.392 12.9354C113.392 14.6306 112.255 15.9868 110.445 15.9868ZM110.445 6.56128C106.338 6.56128 103.878 9.43188 103.878 12.9354C103.878 16.4615 106.431 19.3094 110.445 19.3094C114.482 19.3094 117.011 16.4615 117.011 12.9354C117.011 9.43188 114.575 6.56128 110.445 6.56128ZM95.0612 9.95175L97.3119 15.7608H92.4161L94.6436 9.95175H95.0612ZM100.955 15.7608L97.4511 6.85512H92.1377L88.634 15.7608H86.6154V21.841H89.9798V19.0156H99.4466V21.841H102.834V15.7608H100.955Z" fill="#FF312C"/>
</svg>
